<svg xmlns="http://www.w3.org/2000/svg">
  <symbol id="grape" viewBox="0 -4 511.99686 511">
  <path d="m350.800781 271.742188c46.082031-31.78125 35.242188-110.890626-19.941406-126.097657-3.917969-1.082031-19.441406-.492187-21.324219-2.28125-3.144531-2.984375-4.996094-17.289062-7.417968-21.734375-6.90625-12.6875-17.902344-22.898437-30.890626-29.160156-27.035156-13.03125-59.71875-7.410156-79.855468 15.144531-19.398438-26.257812-53.28125-34.222656-82.585938-20.097656-12.980468 6.257813-24.207031 16.328125-31.5 28.785156-3.742187 6.390625-6.417968 13.371094-7.871094 20.632813-1.75 8.738281.476563 16.734375-.203124 25.242187-.472657 5.878907.882812 4.691407-5.542969 7.15625-3.648438 1.398438-7.160157 3.136719-10.507813 5.15625-7.402344 4.476563-13.820312 10.378907-19 17.300781-9.914062 13.246094-15.035156 29.925782-14.492187 46.449219.25 7.542969 1.671875 15.074219 4.28125 22.15625 1.527343 4.144531 3.460937 8.144531 5.75 11.917969.964843 1.589844 3.308593 4.042969 3.816406 5.613281 1.472656 4.566407 1.546875.949219-.691406 5.304688-4.207031 8.1875-11.878907 14.121093-15.617188 23.191406-3.769531 9.140625-5.640625 18.964844-5.519531 28.855469.113281 9.28125 1.964844 18.542968 5.582031 27.101562 1.722657 4.078125 4.511719 7.628906 6.292969 11.597656 1.5 3.347657 2.722656 2.964844 1.921875 5.84375-.363281 1.3125-5.988281 5.449219-6.8125 6.332032-12.28125 13.179687-18.800781 31.089844-18.671875 49.035156.28125 38.738281 32.1875 71.261719 71.460938 69.214844 17.636718-.917969 34.714843-8.703125 46.746093-21.671875 1.78125-1.917969 6.722657-11.242188 8.796875-11.875 1.691406-.519531 10.4375 4.007812 12.207032 4.472656 9.257812 2.414063 18.925781 2.699219 28.335937 1.03125 17.488281-3.105469 33.535156-13.132813 43.96875-27.507813 2.863281-3.945312 4.488281-8.777343 7.269531-12.640624.65625-.90625 1.175782-4.738282 2.066406-5.203126.4375-.230468 6.539063 1.785157 7.773438 2.027344 10.25 2.011719 20.976562 1.503906 31.023438-1.316406 10.65625-2.988281 20.53125-8.574219 28.609374-16.125 2.21875-2.078125 8.921876-12.953125 11.359376-13.785156 2.75-.941406 11.859374 3.152344 15.066406 3.507812 21.214844 2.34375 42.800781-6.078125 57.367187-21.558594 31.804688-33.800781 20.949219-92.273437-21.25-112.015624 2.710938-1.871094 5.421875-3.738282 8.132813-5.609376-2.710938 1.871094-5.421875 3.738282-8.132813 5.609376zm-56.328125-71.714844c2.46875-2.886719 4.96875-6.304688 6.667969-9.714844.578125-1.007812 1.125-2.03125 1.640625-3.074219 2.425781-4.863281 4.359375-9.921875 5.625-15.21875 1.746094-7.285156.175781-8.355469 7.449219-8.976562 6.875-.585938 15.1875 2.765625 20.976562 6.242187 11.523438 6.914063 19.050781 18.96875 22.019531 31.90625 2.882813 12.582032 1.640626 26.414063-4.363281 37.933594-3.226562 6.1875-7.804687 11.613281-13.460937 15.71875-1.875 1.363281-18.621094 9.394531-18.621094 7.628906.019531-.328125.03125-.660156.03125-.996094.058594-2.351562.011719-4.792968-.207031-7.140624-.019531-.355469-.050781-.710938-.089844-1.066407 0-.046875-.007813-.097656-.007813-.15625-2.148437-20.4375-12.484374-39.195312-29.417968-51 .585937-.695312 1.171875-1.390625 1.757812-2.085937.296875-.347656-.558594.707031 0 0 2.527344-2.957032-.558594.707031 0 0zm-1.425781 29.679687c.15625.195313.296875.382813.421875.582031 2.476562 3.472657 4.453125 7.289063 5.96875 11.269532.175781.453125.34375.90625.492188 1.367187.078124.1875.136718.375.195312.5625.109375.304688.207031.609375.296875.925781 1.101563 3.195313 1.589844 6.585938 2.066406 9.917969.046875.472657.097657.945313.125 1.421875.03125.226563.039063.453125.050781.679688.039063.453125.058594.90625.078126 1.359375.011718.105469.011718.226562.011718.332031.203125 4.273438.085938 9.457031-1.277344 13.554688-.089843.386718-.148437.761718-.179687 1.144531-7.160156 17.226562-18.167969 32.535156-37.429687 36.625-.011719 0-.03125.011719-.039063.011719-12.039063 2.570312-26.515625.398437-36.527344-7.121094-.804687-.523438-1.574219-1.074219-2.289062-1.625-.011719-.011719-.03125-.023438-.039063-.03125-20.550781-15.621094-24.304687-43.796875-12.089844-65.835938 12.660157-22.835937 35.667969-29.558594 59.527344-21.582031.523438.21875 1.03125.453125 1.542969.691406.011719 0 .023437 0 .03125.007813.5.238281 1.003906.472656 1.496094.730468.085937.039063.175781.089844.265625.128907 1.425781.730469 2.8125 1.535156 4.148437 2.410156 1.226563.792969 2.417969 1.636719 3.570313 2.535156 1.09375.84375 2.148437 1.742188 3.152344 2.6875.1875.15625.367187.324219.542968.503907 1.296875 1.125 5.449219 6.136718 5.886719 6.746093.15625.195313-.570313-.796875 0 0zm-104.996094 10.855469c-.632812 2.214844-1.144531 4.460938-1.546875 6.746094-14.210937.386718-26.78125-5.949219-36.605468-15.820313-6.125-6.679687-10.351563-14.933593-12.222657-23.867187-9.355469-24.417969 13.308594-54.101563 36.09375-59.824219-2.574219 24.976563 8.878907 50.527344 29.410157 65.035156-7.082032 7.988281-12.324219 17.597657-15.179688 27.886719.398438-1.425781.8125-2.847656 1.203125-4.277344-.382813 1.375-.769531 2.75-1.152344 4.121094-.632812 2.214844 2.886719-10.304688 0 0zm14.589844 65.980469h-.011719v.011719c-11.335937 7.996093-21.535156 20.425781-25.394531 33.976562h-.011719c-1.617187-.394531-3.210937-.851562-4.789062-1.378906-4.523438-1.511719-9.414063-1.847656-14.15625-1.933594-1.898438-.039062-3.796875-.011719-5.695313.082031-1.46875.253907-2.941406.382813-4.421875.382813-1.207031.058594-2.390625.238281-3.550781.53125-.078125.011718-.167969.019531-.246094.039062-.503906.199219-1.019531.296875-1.542969.296875-16.371093-8.945312-27.152343-27.351562-26.222656-46.0625v-.128906c.023438-.515625.046875-1.03125.066406-1.546875 0-.058594 0-.117188.011719-.167969.019531-.382812.050781-.757812.078125-1.132812 0-.046875.011719-.097657.011719-.148438.125-1.414062.246094-3.269531.609375-4.726562.332031-1.898438.765625-3.761719 1.328125-5.605469.019531-.058594.039063-.128906.058594-.1875.019531-.117188.058593-.226562.097656-.34375.972656-3.453125 2.460937-6.410156 4.039063-9.574219.789062-1.433593 1.640624-2.820312 2.558593-4.167969 2.617188-4.007812 5.929688-7.601562 9.675781-10.582031 1.054688-1.109375 2.246094-1.996093 3.578126-2.660156.410156-.285156.824218-.558594 1.246093-.816406.296875-.195313.59375-.375.886719-.550781l.011719.007812c12.40625 10.886719 28.148437 16.867188 44.570312 16.867188h.292969c.316406 3.8125.746094 9.34375 2.476562 12.816406.203126.722656.421876 1.441406.660157 2.15625.019531.066406.050781.128906.070312.195312.238281.726563.488281 1.449219.746094 2.167969 2.949219 8.125 7.34375 15.609375 12.96875 22.183594zm-3.460937-176.003907c.039062-.089843.085937-.179687.128906-.265624.007812-.019532.027344-.050782.039062-.070313 23.855469-43.65625 90.925782-24.195313 91.457032 24.292969 0 .105468 0 .226562.011718.335937v.144531c0 11.613282-3.996094 22.808594-11.050781 31.957032-.058594.070312-.109375.136718-.167969.207031-1.640625 2.078125-3.496094 4.011719-5.445312 5.792969-13.253906-4.347656-31.417969-5.101563-44.257813 1.339844-1.855469.691406-9.207031 5.398437-10.855469 5.308593-2.585937-.140625-6.589843-4.363281-8.371093-5.894531-5.765625-4.953125-10.394531-11.222656-13.40625-18.210938-.03125-.078124-.058594-.15625-.097657-.234374-6.046874-14.269532-4.585937-32.511719 1.695313-44.117188-.570313 1.058594-.464844.859375.320313-.585938.039062-.089843-1.523438 2.816407 0 0zm-62.464844-31.050781c17.972656 0 34.375 10.1875 42.898437 26.28125-.082031.160157-.148437.316407-.21875.484375-.105469.226563-.207031.453125-.304687.6875-34.933594 3.261719-61.769532 34.5625-62.199219 69.203125-4.027344-1.699219-7.953125-4.210937-11.207031-7.132812-.363282-.292969-.71875-.609375-1.0625-.925781-36.132813-27.125-10.605469-88.597657 32.09375-88.597657zm-59.042969 86.164063c.058594.109375.128906.230468.195313.328125 1.203124 2.089843 3.015624 5.417969 4.828124 7.230469.265626.363281.550782.726562.835938 1.082031.175781.238281.363281.464843.5625.691406.261719.335937.527344.660156.8125.996094 0 .007812 0 .007812.011719.007812 5.320312 6.429688 12.371093 12.550781 19.957031 16.1875 3.960938 2.132813 12.105469 3.148438 15.214844 5.898438 3.160156 2.800781 5.296875 12.964843 7.835937 16.964843-3.453125 2.125-6.683593 4.859376-9.550781 7.730469-.15625.140625-.3125.289063-.460938.445313-.273437.253906-.539062.519531-.796874.796875-4.632813 4.640625-8.441407 9.96875-11.601563 15.703125-.046875.078125-.085937.167968-.125.246094-.980469.839843-1.46875 1.800781-1.464844 2.875-.226562.523437-.464843 1.039062-.71875 1.546874-.011719.019532-.019531.03125-.019531.050782-.707031 1.550781-1.351562 3.125-1.929688 4.726562-.464843 1.28125-1.054687 2.722656-1.347656 4.078125-.121094.394531-.234375.792969-.34375 1.191407-.117187.382812-.222656.769531-.3125 1.164062-.039062.125-.070312.253906-.097656.382812-.089844.304688-.167969.609376-.238281.914063-.007813.058594-.027344.109375-.039063.167969-.539062 2.226562-.726562 4.542968-1.277344 6.757812-.007812.050782-.007812.089844-.019531.140625-.011719.035157-.011719.078125-.011719.117188-.019531.078125-.019531.15625-.027343.234375l-.03125.238281s0 0-.007813 0c-.535156.078125-1.066406.179687-1.59375.304687-3.851562.640626-7.925781.949219-11.808594.542969-.039062 0-.089843-.011719-.128906-.011719-.472656-.039062-.945312-.078124-1.40625-.128906-.097656-.019531-.1875-.027344-.273437-.027344-4.039063-.527343-8.011719-1.503906-11.820313-2.957031-1.796875-.707031-3.542968-1.519531-5.238281-2.433593-.867187-.566407-1.761719-1.082032-2.683594-1.546876-.5-.308593-.992187-.628906-1.476562-.964843-.375-.253907-.757813-.511719-1.132813-.777344-.019531-.019531-.039062-.03125-.058594-.039063-.960937-.78125-1.9375-1.542968-2.929687-2.285156-30.484375-25.617187-18.882813-79.898437 20.71875-88.570312-.164063-.300782-8.636719 1.875-9.804687 2.171875 3.242187-.820313 6.542968-1.457031 9.804687-2.171875.058594.109375-22.183594 4.859375 0 0zm-27.226563 108.261718c3.449219 2.292969 10.074219 7.25 14.316407 7.25 6.058593 2.160157 12.679687 3.753907 19.132812 3.960938h.011719c3.222656.210938 6.988281.464844 10.1875-.175781 2.421875-1.507813 3.628906-1.648438 3.625-.425781 1.585938 10.324218 5.507812 22.820312 12.527344 30.855468 0 .007813.011718.019532.011718.019532 3.082032 4.296874 6.578126 8.265624 10.605469 11.703124.039063.027344.070313.066407.121094.097657-10.066406 6.164062-29.027344 22.675781-29.027344 35.90625-2.34375.585937-4.777343 1.078125-7.195312 1.28125-.199219.03125-.394531.046875-.589844.058593-48.230469 4.402344-70.789063-61.472656-33.726563-90.53125.082032.054688-4.5 4.78125-5.183593 4.328126-.117188-.078126 6.648437-5.476563 5.183593-4.328126 1.621094 1.078126-12.074218 9.46875 0 0zm17.777344 191.277344c-25.398437 0-44.796875-20.144531-47.828125-44.695312-1.417969-11.515625.777344-23.445313 6.878907-33.382813 2.507812-4.082031 7.152343-11.394531 11.808593-12.976562 5.480469-1.863281 15.6875 5.355469 22.269531 7.558593 7.230469 2.066407 15.125 3.199219 22.660157 2.511719 1.273437-.109375 2.542969-.21875 3.816406-.324219-.5 8.488282.558594 17.734376 3.460937 25.738282 1.09375 3.476562 2.402344 7.3125 4.335938 10.410156 2.621094 5.15625 5.882812 10.484375 9.988281 14.601562 5.042969 5.828126 5.585938 5.527344.574219 11.921876-2.878906 3.671874-6.238281 6.867187-10.023438 9.585937-8.140624 5.847656-17.902343 9.050781-27.941406 9.050781zm136.234375-69.34375c0 .019532-.007812.03125-.007812.050782-6.21875 37.96875-52.851563 55.195312-81.019531 28.324218-12.667969-12.078125-20.039063-30-15.414063-47.320312 4.371094-16.371094 17.835937-35.816406 36.121094-38.433594 9.078125-2.410156 27.535156-3.1875 34.964843 4.253906.019532.011719.03125.019532.050782.03125h.007812c.011719 0 .011719.011719.019532.011719 18.820312 10.324219 28.511718 33.730469 25.382812 52.476563.167969-1.027344.136719-.824219-.105469.605468 0 .019532.464844-2.765625 0 0zm37.316407-1.191406c-5.839844 0-11.640626-1.082031-17.082032-3.171875.15625-2.699219.285156-5.816406-.019531-8.550781-.171875-2.929688-.648437-5.785156-1.0625-8.6875-.117187-.613282-.234375-1.222656-.363281-1.832032-.007813-.019531-.007813-.039062-.019532-.058593-.109374-.535157-.226562-1.066407-.355468-1.585938-.007813-.050781-.019532-.089843-.027344-.140625-2.460938-9.25-7.523438-24.964844-16.007812-30.644531-.394532-.453125-.796876-.894531-1.21875-1.332031-.199219-.226563-.414063-.453125-.648438-.679688-2.96875-3.203125-6.417969-5.988281-9.960938-8.519531.03125-.109375.058594-.207031.097657-.304687.078125-.296876.167969-.582032.265625-.867188.914062-3.050781 2.261718-6.207031 3.863281-8.984375 2.230469-4.214844 5.125-8.089844 8.554687-11.40625.265626-.277344.539063-.542969.816407-.796875.253906-.257812.511719-.496094.777343-.730469.214844-.207031.441407-.402343.667969-.589843.117188-.121094.234375-.226563.355469-.316407.234375-.207031.460938-.402343.695312-.589843 2.148438-1.878907 4.609376-3.546876 7.109376-4.9375 10.839843 6.789062 23.082031 10.195312 35.859374 10.265624-.011718.128907-.019531.265626-.039062.40625-.648438 9.984376.804688 20.027344 4.207031 29.429688 1.902344 5.257812 7.082031 19.085938 12.605469 21.863281.148438.175781.296875.355469.460938.53125 0 .011719.011718.03125.039062.039063l.011719.011718c.304687.355469.617187.707032.945312 1.050782v.011718c1.992188 2.21875 4.136719 4.289063 6.421875 6.207032 4.273438 1.46875 4.648438 3.492187 1.128906 6.066406-1.460937 3.683594-6.992187 7.433594-10.101562 9.675781-8.136719 5.871094-17.910156 9.167969-27.976562 9.167969zm80.632812-28.554688c-30.460938 0-52.78125-29.753906-48.167969-59.046874 8.886719-2.804688 20.191407-8.046876 26.164063-15.535157.695312-.65625 1.371094-1.324219 2.035156-2.011719.117188-.105468.226562-.214843.324219-.332031.921875-.949219 1.804687-1.925781 2.652343-2.9375.265626-.296875.511719-.589843.757813-.894531.109375-.121094.207031-.238281.304687-.367188 1.464844-1.765624 3.550782-4.199218 4.621094-6.34375 2.550782-3.863281 4.808594-8.128906 6.429688-12.46875.121094-.265624.21875-.542968.324218-.820312 27.90625-2.738281 52.414063 20.898438 53.363282 48.390625.9375 27.191406-21.078125 52.367187-48.808594 52.367187zm0 0"/><path d="m436.164062 144.464844c-5.429687 0-9.835937-4.410156-9.835937-9.851563 0-5.4375 4.398437-9.847656 9.828125-9.847656h.007812c5.433594 0 9.832032 4.410156 9.832032 9.847656 0 5.441407-4.398438 9.851563-9.832032 9.851563zm0 0"/><path d="m507.773438 167.695312c-8.789063-36.222656-35.160157-67.203124-78.429688-92.183593 6.222656-9.453125 38.347656-71.0625 15.484375-74.859375-13.910156-2.308594-13.835937 21.902344-16.429687 30.492187-4.378907 14.5-10.917969 28.492188-20.304688 40.4375-.007812 0-.007812 0-.019531.007813-18.230469 23.917968-48.546875 37.472656-78.3125 37.472656-8.421875-.457031-13.558594 10.085938-7.871094 16.394531 3.921875 4.351563 10.558594 3.425781 15.78125 3.09375 19.242187-1.210937 38.539063-7.289062 54.976563-17.359375-18.984376 70.296875 27.625 122.894532 83.113281 158.519532 0 0 .007812.011718.019531.011718.097656.058594.1875.117188.292969.175782 1.621093 1.003906 3.902343 1.542968 5.761719 1.332031.148437 0 .296874-.019531.453124-.050781.359376-.035157.710938-.097657 1.0625-.1875.605469-.121094 1.226563-.367188 1.789063-.621094.070313-.019532.136719-.058594.199219-.089844.066406-.027344.136718-.058594.195312-.097656 1.371094-.6875 2.5625-1.726563 3.472656-2.964844.035157-.046875.078126-.105469.117188-.15625 1.292969-1.863281 31.578125-46.09375 18.648438-99.367188-8.789063-36.222656 12.929687 53.273438 0 0zm-24.511719 67.578126c-5.246094-16.757813-10.542969-33.507813-16.21875-50.125-2.734375-8.019532-6.074219-27.601563-16.59375-28.785157-17.171875-1.925781-7.84375 18.511719-5.054688 26.316407 6.390625 17.871093 12.035157 36.03125 17.730469 54.128906-22.128906-17.109375-43.28125-38.65625-51.746094-66.042969-8.175781-26.457031-1.585937-53.082031 8.335938-78.085937 52.070312 30.136718 87.253906 81.429687 63.546875 142.59375-8.199219-26.195313 0 0 0 0zm0 0"/>
  </symbol>
  <symbol id="nut" viewBox="0 0 498.613 498.613">
    <path d="M450.231,117.215c-2.383-3.387-7.061-4.201-10.449-1.816c-3.388,2.384-4.201,7.063-1.816,10.45  c26.108,37.095,39.908,79.786,39.908,123.458c0,56.535-23.323,111.31-65.674,154.235c-31.918,32.351-73.081,56.518-118.814,70.244  c-9.156-7.448-14.702-22.076-17.242-46.35c9.316,8.669,21.791,13.987,35.491,13.987c15.887,0,30.748-7.187,40.613-19.436  c1.26,0.092,2.518,0.139,3.766,0.139c28.758,0,52.154-23.396,52.154-52.154c0-4.346-0.526-8.614-1.57-12.759  c13.721-5.632,25.921-14.997,34.891-26.901c10.885-14.445,16.638-31.664,16.638-49.797c0-18.059-5.844-35.444-16.592-49.738  c10.449-9.786,16.5-23.512,16.5-38.064c0-25.479-18.113-46.705-42.434-51.248c-0.579-23.15-16.217-42.899-38.24-48.937  c-7.174-25.679-30.74-43.838-57.825-43.838c-13.35,0-25.692,4.383-35.674,11.78c5.504-13.186,13.173-24.236,22.343-31.533  c44.329,15.451,83.52,40.857,113.623,74.218c2.776,3.076,7.519,3.319,10.593,0.543c3.075-2.775,3.318-7.517,0.544-10.592  C385.935,43.205,321.794,10.166,250.356,0.074c-0.695-0.099-1.402-0.099-2.098,0c-66.83,9.441-128.1,39.438-172.522,84.463  c-45.138,45.75-69.996,104.266-69.996,164.77s24.858,119.02,69.996,164.77c44.423,45.025,105.692,75.021,172.522,84.463  c0.348,0.049,0.698,0.074,1.049,0.074s0.701-0.024,1.049-0.074c66.83-9.441,128.099-39.438,172.521-84.463  c45.138-45.75,69.996-104.266,69.996-164.77C492.873,202.527,478.128,156.851,450.231,117.215z M319.534,63.69  c21.584,0,40.188,15.365,44.238,36.535c0.586,3.065,3.01,5.447,6.085,5.98c17.172,2.978,29.802,17.374,30.702,34.622  c-11.921,1.2-22.974,6.42-31.56,15.006c-2.93,2.929-2.93,7.677-0.001,10.606c1.465,1.465,3.384,2.197,5.304,2.197  c1.919,0,3.839-0.732,5.303-2.197c7.019-7.018,16.35-10.882,26.273-10.882c0.178,0,0.35-0.038,0.519-0.092  c0.354,0.067,0.712,0.118,1.077,0.134c19.939,0.841,35.559,17.143,35.559,37.113c0,10.278-4.25,19.968-11.58,26.93  c-15.343-14.185-35.155-21.97-56.17-21.97c-4.143,0-7.5,3.358-7.5,7.5s3.357,7.5,7.5,7.5c18.121,0,35.158,7.057,47.971,19.871  c0.372,0.372,0.774,0.696,1.198,0.974c0.26,0.44,0.565,0.858,0.916,1.243c11.451,12.528,17.758,28.777,17.758,45.756  c0,14.849-4.709,28.947-13.617,40.77c-7.365,9.773-17.385,17.447-28.646,22.056c-9.308-15.7-26.234-25.524-44.849-25.524  c-13.931,0-27.027,5.425-36.879,15.276c-2.929,2.929-2.929,7.678,0,10.606c2.93,2.929,7.678,2.929,10.607,0  c7.018-7.018,16.348-10.882,26.271-10.882c14.968,0,28.406,8.908,34.238,22.695c0.001,0.002,0.002,0.003,0.003,0.005  c0.002,0.006,0.004,0.011,0.006,0.017c1.929,4.571,2.907,9.428,2.907,14.438c0,18.879-14.157,34.503-32.412,36.841  c1.996-5.588,3.034-11.506,3.034-17.544c0-4.142-3.357-7.5-7.5-7.5s-7.5,3.358-7.5,7.5c0,7.359-2.147,14.467-6.204,20.561  c-0.01,0.014-0.022,0.026-0.032,0.041c-6.922,10.364-18.48,16.552-30.919,16.552c-20.486,0-37.153-16.667-37.153-37.154  c0-10.333,4.151-19.936,11.688-27.039c2.816-2.654,3.151-7.016,0.772-10.069c-8.152-10.459-12.461-22.999-12.461-36.261  c0-18.289,8.286-35.255,22.734-46.549c0.067-0.052,0.126-0.113,0.191-0.167c10.42-8.076,22.909-12.347,36.137-12.347  c4.143,0,7.5-3.358,7.5-7.5s-3.357-7.5-7.5-7.5c-14.464,0-28.224,4.077-40.178,11.837c-12.054-12.865-18.884-29.913-18.884-47.655  c0-18.473,7.16-35.881,20.162-49.018c0.026-0.026,0.047-0.055,0.072-0.082c13.184-13.282,30.744-20.597,49.462-20.597  c4.143,0,7.5-3.358,7.5-7.5s-3.357-7.5-7.5-7.5c-20.503,0-39.851,7.241-55.204,20.486c-9.158-8.477-14.493-20.45-14.493-33.065  C274.481,83.901,294.692,63.69,319.534,63.69z M20.739,249.306c0-56.535,23.323-111.31,65.674-154.235  c28.917-29.309,65.419-51.906,106.035-66.105c9.151,7.297,16.803,18.334,22.299,31.498c-9.981-7.393-22.321-11.775-35.667-11.775  c-27.086,0-50.652,18.159-57.825,43.838c-22.023,6.038-37.661,25.786-38.24,48.937c-24.319,4.543-42.434,25.769-42.434,51.248  c0,14.553,6.051,28.279,16.5,38.064c-10.749,14.294-16.593,31.679-16.593,49.738c0,1.78,0.057,3.576,0.17,5.339  c0.264,4.135,3.861,7.275,7.962,7.007c4.134-0.264,7.271-3.829,7.007-7.962c-0.092-1.447-0.139-2.922-0.139-4.384  c0-16.979,6.307-33.229,17.758-45.755c0.352-0.385,0.657-0.803,0.917-1.245c0.423-0.277,0.823-0.601,1.195-0.972  c12.814-12.813,29.852-19.871,47.973-19.871c4.143,0,7.5-3.358,7.5-7.5s-3.357-7.5-7.5-7.5c-21.015,0-40.827,7.786-56.17,21.971  c-7.33-6.962-11.58-16.652-11.58-26.931c0-19.97,15.618-36.271,35.558-37.113c0.365-0.015,0.723-0.066,1.078-0.134  c0.169,0.054,0.341,0.092,0.519,0.092c9.924,0,19.254,3.865,26.272,10.882c1.464,1.465,3.384,2.197,5.303,2.197  s3.839-0.732,5.304-2.197c2.929-2.929,2.929-7.678-0.001-10.606c-8.586-8.586-19.639-13.807-31.559-15.006  c0.9-17.248,13.53-31.645,30.702-34.622c3.075-0.533,5.499-2.915,6.085-5.981c4.049-21.169,22.653-36.534,44.238-36.534  c24.843,0,45.054,20.211,45.054,45.054c0,12.615-5.335,24.588-14.492,33.065c-15.354-13.245-34.702-20.486-55.204-20.486  c-4.143,0-7.5,3.358-7.5,7.5s3.357,7.5,7.5,7.5c18.719,0,36.282,7.318,49.468,20.603c0.023,0.024,0.043,0.051,0.066,0.075  c13.002,13.138,20.162,30.546,20.162,49.018c0,17.741-6.83,34.79-18.884,47.656c-11.956-7.76-25.715-11.837-40.179-11.837  c-4.143,0-7.5,3.358-7.5,7.5s3.357,7.5,7.5,7.5c13.229,0,25.719,4.272,36.141,12.35c0.063,0.053,0.121,0.112,0.187,0.164  c14.448,11.294,22.734,28.26,22.734,46.549c0,13.263-4.309,25.802-12.461,36.261c-2.38,3.053-2.045,7.415,0.771,10.069  c7.538,7.103,11.689,16.705,11.689,27.039c0,20.487-16.667,37.154-37.154,37.154c-12.438,0-23.996-6.188-30.918-16.552  c-0.011-0.017-0.025-0.031-0.037-0.047c-4.055-6.092-6.2-13.198-6.2-20.555c0-4.142-3.357-7.5-7.5-7.5s-7.5,3.358-7.5,7.5  c0,6.039,1.038,11.956,3.033,17.544c-18.254-2.337-32.412-17.962-32.412-36.841c0-5.01,0.979-9.867,2.908-14.437  c0.003-0.007,0.005-0.014,0.008-0.021c0,0,0.001-0.001,0.001-0.002c5.831-13.786,19.27-22.694,34.237-22.694  c9.925,0,19.255,3.865,26.272,10.882c2.93,2.929,7.678,2.929,10.607,0c2.929-2.929,2.929-7.678,0-10.606  c-9.852-9.851-22.948-15.276-36.88-15.276c-18.617,0-35.541,9.823-44.849,25.524c-15.431-6.293-28.182-18.159-35.518-33.299  c-1.806-3.727-6.291-5.285-10.02-3.479c-3.728,1.806-5.285,6.292-3.479,10.02c8.941,18.454,24.471,32.942,43.279,40.634  c-1.043,4.143-1.569,8.409-1.569,12.753c0,28.758,23.396,52.154,52.154,52.154c1.248,0,2.506-0.046,3.767-0.139  c9.865,12.249,24.726,19.436,40.612,19.436c13.699,0,26.174-5.317,35.49-13.985c-2.541,24.27-8.085,38.9-17.241,46.348  c-45.733-13.727-86.895-37.893-118.814-70.244C44.063,360.616,20.739,305.842,20.739,249.306z M249.307,483.536  c-9.328-1.35-18.534-3.131-27.594-5.303c12.227-15.78,17.42-43.284,17.42-88.965c0-12.089-4.272-23.845-11.892-33.125  c7.799-11.979,11.892-25.768,11.892-40.243c0-20.102-7.977-38.925-22.14-52.8c14.157-15.53,22.14-35.908,22.14-57.081  c0-19.694-6.695-38.391-19.006-53.462c12.023-11.278,19.006-27.129,19.006-43.813c0-18.854-3.677-37.605-10.632-54.229  c-5.116-12.229-11.776-22.654-19.59-30.78c13.138-3.762,26.639-6.667,40.396-8.659c13.796,1.997,27.293,4.904,40.409,8.644  c-7.82,8.128-14.485,18.557-19.604,30.794c-6.955,16.623-10.631,35.375-10.631,54.229c0,16.685,6.982,32.535,19.005,43.813  c-12.31,15.071-19.005,33.767-19.005,53.462c0,21.174,7.982,41.551,22.139,57.081c-14.162,13.875-22.139,32.699-22.139,52.8  c0,14.476,4.092,28.263,11.892,40.243c-7.619,9.281-11.892,21.037-11.892,33.125c0,45.681,5.193,73.185,17.42,88.965  C267.841,480.406,258.634,482.186,249.307,483.536z"/>
  </symbol>
  <symbol id="almond" viewBox="0 0 511.999 511.999" >
    <path id="XMLID_1790_" d="m240.383 409.486c-5.292-1.582-10.863 1.43-12.441 6.723-13.313 44.607-55.158 75.762-101.762 75.762-58.548-.001-106.18-47.633-106.18-106.181 0-78.521 27.642-155.019 77.832-215.402l16.903-20.336c2.836-3.412 7.008-5.369 11.444-5.369s8.608 1.957 11.444 5.368l16.903 20.337c38.287 46.063 63.658 101.651 73.372 160.754.895 5.448 6.033 9.146 11.489 8.245 5.449-.896 9.142-6.039 8.245-11.489-10.289-62.61-37.167-121.497-77.726-170.293l-16.903-20.338c-6.648-7.997-16.426-12.584-26.825-12.584s-20.177 4.587-26.825 12.585l-16.903 20.336c-53.168 63.967-82.45 145.006-82.45 228.186 0 69.575 56.604 126.18 126.18 126.18 27.715 0 54.018-8.816 76.064-25.496 21.322-16.132 37.254-39.055 44.861-64.547 1.581-5.292-1.43-10.862-6.722-12.441z"/><path id="XMLID_1796_" d="m121.449 252.915c-4.865 2.612-6.692 8.675-4.08 13.541 16.498 30.729 26.637 65.315 29.317 100.02.405 5.244 4.786 9.23 9.96 9.23.258 0 .52-.011.781-.03 5.506-.426 9.625-5.234 9.2-10.741-2.936-37.989-13.58-74.306-31.638-107.939-2.612-4.866-8.673-6.693-13.54-4.081z"/><path id="XMLID_1803_" d="m126.18 427.043c5.522 0 10-4.478 10-10s-4.478-10-10-10c-11.719 0-21.253-9.534-21.253-21.253 0-12.47.944-25.058 2.807-37.413.822-5.461-2.938-10.556-8.398-11.379-5.454-.821-10.556 2.937-11.379 8.398-2.01 13.339-3.029 26.929-3.029 40.394-.001 22.747 18.505 41.253 41.252 41.253z"/><path id="XMLID_1804_" d="m126.18 469.506c46.161 0 83.717-37.555 83.717-83.716 0-5.522-4.478-10-10-10s-10 4.478-10 10c0 35.133-28.583 63.716-63.717 63.716-5.522 0-10 4.478-10 10s4.477 10 10 10z"/><path id="XMLID_1805_" d="m191.369 324.396c.777 0 1.567-.091 2.356-.281 5.368-1.298 8.669-6.701 7.371-12.069-6.916-28.625-17.794-56.116-32.329-81.712-2.728-4.803-8.831-6.485-13.634-3.757-4.802 2.727-6.484 8.831-3.757 13.634 13.613 23.973 23.801 49.722 30.28 76.532 1.108 4.578 5.201 7.653 9.713 7.653z"/><path id="XMLID_1806_" d="m87.663 243.373c-4.962-2.417-10.95-.354-13.368 4.612-20.824 42.762-31.831 90.413-31.831 137.805 0 5.522 4.478 10 10 10s10-4.478 10-10c0-44.375 10.309-88.999 29.812-129.049 2.417-4.964.353-10.95-4.613-13.368z"/><path id="XMLID_1809_" d="m511.851 282.914-2.428-26.333c-7.636-82.829-44.233-160.837-103.05-219.654-49.198-49.197-129.25-49.196-178.446 0-49.196 49.198-49.196 129.248.001 178.445 58.818 58.817 136.826 95.415 219.654 103.05l26.332 2.428c1.081.1 2.158.148 3.231.148 9.213 0 18.05-3.632 24.636-10.218 7.354-7.353 11.024-17.51 10.07-27.866zm-24.211 13.724c-3.138 3.138-7.47 4.707-11.89 4.296l-26.332-2.428c-78.188-7.207-151.825-41.753-207.349-97.276-41.398-41.399-41.398-108.761.001-150.16 20.054-20.055 46.718-31.1 75.08-31.1 28.361 0 55.025 11.045 75.08 31.1 55.521 55.521 90.068 129.159 97.276 207.348l2.428 26.333c.408 4.417-1.158 8.75-4.294 11.887z"/><path id="XMLID_1810_" d="m317.149 104.911c5.687 0 11.023 2.206 15.028 6.211 8.817 8.817 17.051 18.386 24.471 28.439 1.961 2.656 4.987 4.063 8.054 4.063 2.063 0 4.144-.637 5.931-1.955 4.443-3.279 5.387-9.54 2.107-13.984-8.011-10.854-16.899-21.185-26.42-30.705-7.782-7.782-18.142-12.068-29.17-12.068-.001 0 0 0-.001 0-11.028 0-21.389 4.286-29.17 12.069-3.905 3.905-3.905 10.236.001 14.142 3.904 3.904 10.237 3.905 14.142-.001 4.005-4.005 9.342-6.211 15.027-6.211z"/><path id="XMLID_1824_" d="m407.762 204.302c-33.393-10.063-65.018-27.35-91.456-49.993-4.196-3.594-10.508-3.105-14.1 1.09-3.593 4.194-3.104 10.507 1.09 14.1 28.94 24.788 62.146 42.94 98.696 53.954.962.289 1.933.428 2.889.428 4.297 0 8.268-2.792 9.571-7.118 1.593-5.288-1.402-10.867-6.69-12.461z"/><path id="XMLID_1825_" d="m376.347 66.953c-3.906-3.904-10.236-3.904-14.143 0-3.905 3.905-3.905 10.237 0 14.143 31.377 31.377 55.642 70.22 70.171 112.331 1.429 4.141 5.305 6.741 9.452 6.741 1.082 0 2.183-.177 3.263-.55 5.221-1.802 7.993-7.494 6.191-12.715-15.512-44.961-41.425-86.44-74.934-119.95z"/><path id="XMLID_1859_" d="m402.274 246.906c-26.576-7.323-51.987-18.327-75.529-32.705-4.714-2.88-10.867-1.391-13.746 3.322s-1.392 10.867 3.322 13.746c25.134 15.351 52.265 27.099 80.639 34.918.89.245 1.783.362 2.663.362 4.388 0 8.412-2.911 9.635-7.346 1.467-5.324-1.659-10.83-6.984-12.297z"/><path id="XMLID_1905_" d="m272.096 66.953c-3.906-3.904-10.236-3.904-14.143 0-32.641 32.642-32.641 85.752 0 118.394 1.953 1.952 4.512 2.929 7.071 2.929s5.118-.977 7.071-2.929c3.905-3.905 3.905-10.237 0-14.143-24.844-24.843-24.844-65.266 0-90.108 3.906-3.905 3.906-10.237.001-14.143z"/><path id="XMLID_1908_" d="m242.17 364.3c-2.63 0-5.21 1.069-7.07 2.93-1.859 1.86-2.93 4.44-2.93 7.07 0 2.64 1.07 5.21 2.93 7.069 1.86 1.87 4.44 2.931 7.07 2.931s5.21-1.061 7.07-2.931c1.859-1.859 2.93-4.439 2.93-7.069s-1.07-5.21-2.93-7.07c-1.86-1.861-4.44-2.93-7.07-2.93z"/>
  </symbol>
  <symbol id="powder" viewBox="0 0 511 511">
    <circle cx="135.5" cy="175.5" r="7.5"/><circle cx="183.5" cy="175.5" r="7.5"/><circle cx="159.5" cy="207" r="7.5"/><circle cx="207.5" cy="207" r="7.5"/><circle cx="63" cy="207" r="7.5"/><circle cx="111.5" cy="207" r="7.5"/><circle cx="159.5" cy="144" r="7.5"/><circle cx="111.5" cy="144" r="7.5"/><circle cx="88" cy="175.5" r="7.5"/><path d="m487.5 224h-71.392c-4.143 0-7.5 3.358-7.5 7.5s3.357 7.5 7.5 7.5h71.392c4.687 0 8.5 3.813 8.5 8.5v2.446c0 4.172-2.987 7.699-7.103 8.385l-226.631 37.771c-3.616.603-6.267 3.731-6.267 7.398v40c0 31.154-25.346 56.5-56.5 56.5h-128c-31.153 0-56.499-25.346-56.499-56.5v-104.5h364.326c4.143 0 7.5-3.358 7.5-7.5s-3.357-7.5-7.5-7.5h-110.745c-4.269-10.311-15.456-35.376-32.9-60.749-30.248-43.996-64.89-67.251-100.181-67.251s-69.933 23.255-100.181 67.251c-22.263 32.384-34.339 64.274-34.841 65.616-.015.04-.023.081-.037.121-.072.203-.135.409-.19.62-.019.073-.04.146-.056.219-.05.219-.088.441-.119.666-.008.059-.021.118-.027.177-.031.273-.049.549-.049.83v112c0 39.425 32.075 71.5 71.5 71.5h128c39.425 0 71.5-32.075 71.5-71.5v-33.646l220.364-36.727c11.378-1.898 19.636-11.646 19.636-23.181v-2.446c0-12.958-10.542-23.5-23.5-23.5zm-352-113c61.131 0 103.635 83.529 116.725 113h-233.457c13.069-29.471 55.522-113 116.732-113z"/>
  </symbol>
  <symbol id-"apitherapy" viewBox="0 0 60 60">
    <path id="Shape" d="m.47 53.848c8.698 5.437 8.122 5.152 8.53 5.152s-.1.239 8-4.821c8.117 5.073 7.6 4.821 8 4.821s0 .177 6.54-3.912c.469442-.2929871.612487-.9110579.3194999-1.3805-.292987-.469442-.9110579-.612487-1.3804999-.3195l-5.479 3.433-7-4.375v-6.892l3.651-2.286c.469442-.2932632.6122632-.911558.319-1.381s-.911558-.6122632-1.381-.319l-3.589 2.252-7-4.374v-6.892l7-4.374c3.9 2.443 3.643 2.316 3.922 2.373.4689316.0873966.9343088-.1685789 1.1115902-.6114178.1772815-.4428388.0171067-.9492413-.3825902-1.2095822l-3.651-2.286v-6.892l7-4.375 7 4.375v1.446c0 .5522847.4477153 1 1 1s1-.4477153 1-1v-1.446l7-4.375 7 4.375v7.446c0 .5522847.4477153 1 1 1s1-.4477153 1-1v-8c.0000008-.3447904-.1776185-.6652611-.47-.848l-7.53-4.706v-7.446c.0000008-.34479043-.1776185-.66526107-.47-.848l-8-5c-.3242708-.20266981-.7357292-.20266981-1.06 0l-7.47 4.669-7.47-4.669c-.3242708-.20266981-.7357292-.20266981-1.06 0l-8 5c-.29238147.18273893-.47000081.50320957-.47.848v7.446l-7.53 4.706c-.29238147.1827389-.47000081.5032096-.47.848v8c-.00000081.3447904.17761853.6652611.47.848l7.53 4.706v6.892l-7.53 4.706c-.29238147.1827389-.47000081.5032096-.47.848v8c-.00000081.3447904.17761853.6652611.47.848zm32.53-51.669 7 4.375v6.892l-7 4.375-7-4.375v-6.892zm-16 0 7 4.375v6.892l-7 4.375-7-4.375v-6.892zm-15 17.375 7-4.375 7 4.375v6.892l-7 4.375-7-4.375zm0 26 7-4.375 7 4.375v6.892l-7 4.375-7-4.375z"/><path id="Shape" d="m46 30.012v-1.012c-.0001797-1.7518097-.7676023-3.4156551-2.1-4.553l1-2c.2412059-.493494.039214-1.0891622-.4524127-1.3341516-.4916268-.2449894-1.0888289-.0475788-1.3375873.4421516l-.927 1.861c-1.3993259-.5531106-2.9566741-.5531106-4.356 0l-.927-1.862c-.157688-.3226209-.4762521-.5359231-.834616-.5588369-.3583639-.0229139-.7015.1480791-.8989927.4479897-.1974927.2999105-.2190167.6826868-.0563913 1.0028472l1 2c-1.3363877 1.1356891-2.1076168 2.800228-2.11 4.554v1.009c-.91-.009-1.9-.009-3-.009-5.312 0-11 2.411-11 6 0 4.308 8.125 6.579 12.167 5.891-.092.8-.167 1.89-.167 2.609 0 7 3 12.581 7 13.389v1.111c0 .5522847.4477153 1 1 1s1-.4477153 1-1v-1.111c4-.808 7-6.393 7-13.389 0-.715-.076-1.812-.166-2.6 4.095.677 12.166-1.6 12.166-5.9 0-3.589-5.688-6-11-6-1.05 0-2.061 0-3 .012zm-10-1.012c0-2.209139 1.790861-4 4-4s4 1.790861 4 4v1.052c-1.3532201-.022481-2.7013032.1719832-3.993.576-1.2930839-.4191962-2.6481418-.6149981-4.007-.579zm4.006 6.381c.468581.9376968 1.0462471 1.8167831 1.721 2.619h-3.457c.6736963-.8061467 1.2559209-1.6845144 1.736-2.619zm-18.006.619c0-1.8 4.153-4 9-4 2 0 6.731-.036 7.973.358-.342 2.405-3.827 7.642-7.973 7.642-4.847 0-9-2.2-9-4zm14.214 4h7.555c.6056562.4785529 1.2619019.8893351 1.957 1.225.04.257.075.516.106.775h-6.832c-.5522847 0-1 .4477153-1 1s.4477153 1 1 1h6.977c.0437111.6665261.0313342 1.3355467-.037 2h-11.88c-.0656006-.664616-.0779733-1.3334123-.037-2h.977c.5522847 0 1-.4477153 1-1s-.4477153-1-1-1h-.832c.032-.265.067-.53.109-.793.6876696-.3306399 1.3371846-.7353713 1.937-1.207zm-.714 12h4.5c.5522847 0 1-.4477153 1-1s-.4477153-1-1-1h-5.241c-.1903886-.6575983-.3439603-1.3253014-.46-2h11.401c-.1160397.6746986-.2696114 1.3424017-.46 2h-1.24c-.5522847 0-1 .4477153-1 1s.4477153 1 1 1h.5c-2.434 5.33-6.567 5.328-9 0zm22.5-16c0 2.487-7.435 4.99-10.992 3.61-2.9713691-1.401203-5.1630793-4.0544996-5.978-7.237 1.437-.433 5.77-.358 7.97-.373 4.847 0 9 2.2 9 4z"/>
  </symbol>
  <symbol id="beans" viewBox="0 0 512.001 512.001">
    <g>
	<g>
		<path d="M242.488,120.593c-3.526-4.394-9.945-5.097-14.337-1.571c-5.263,4.224-11.622,6.457-18.39,6.457
			c-6.768,0-13.127-2.232-18.39-6.457c-4.392-3.527-10.811-2.823-14.337,1.571c-3.526,4.392-2.823,10.811,1.571,14.337
			c8.795,7.058,19.859,10.946,31.156,10.946c11.297,0,22.361-3.888,31.156-10.946C245.311,131.404,246.014,124.986,242.488,120.593z
			"/>
	</g>
</g>
<g>
	<g>
		<path d="M504.631,264.492c-8.163-22.526-22.391-41.812-41.147-55.774c-13.269-9.878-28.419-16.679-44.683-20.203
			c3.462-32.092-6.464-65.395-27.393-90.697c-22.63-27.358-55.115-42.424-91.47-42.424h-5.942c-25.451,0-50.164,9.038-71.469,26.135
			c-3.653,2.932-8.068,4.482-12.766,4.482c-4.698,0-9.113-1.55-12.766-4.482c-21.304-17.099-46.018-26.135-71.469-26.135h-5.942
			c-26.268,0-50.843,7.958-71.069,23.014C29.76,92.37,15.532,111.657,7.369,134.182c-8.129,22.435-9.564,46.232-4.149,68.822
			c5.843,24.371,19.547,46.11,39.632,62.866c15.333,12.792,32.083,23.777,49.861,32.725c-0.727,11.66,0.258,23.342,2.985,34.719
			c5.843,24.371,19.547,46.11,39.632,62.866c46.708,38.966,105.984,60.427,166.909,60.427s120.202-21.459,166.909-60.427
			c20.085-16.756,33.789-38.495,39.631-62.866C514.195,310.726,512.761,286.927,504.631,264.492z M95.972,277.276
			c-14.191-7.646-27.63-16.703-40.053-27.067c-39.007-32.542-40.749-77.682-29.372-109.077c11.446-31.588,41.898-65.34,93.039-65.34
			h5.942c20.758,0,41.057,7.485,58.702,21.646c7.208,5.786,16.276,8.971,25.533,8.971s18.325-3.186,25.533-8.971
			c17.644-14.162,37.944-21.646,58.702-21.646h5.942c30.165,0,57.068,12.44,75.754,35.029
			c17.351,20.974,25.637,48.509,22.887,75.049c-2.045-0.098-4.096-0.165-6.163-0.165h-5.942c-25.451,0-50.164,9.038-71.469,26.135
			c-3.653,2.932-8.067,4.481-12.766,4.481c-4.699,0-9.113-1.55-12.766-4.481c-21.305-17.099-46.018-26.135-71.469-26.135h-5.942
			c-26.268,0-50.843,7.958-71.069,23.014c-18.756,13.962-32.985,33.249-41.147,55.774C98.317,268.712,97.026,272.979,95.972,277.276
			z M456.082,380.518c-43.047,35.914-97.683,55.692-153.843,55.692s-110.796-19.779-153.843-55.692
			c-39.007-32.541-40.749-77.682-29.373-109.077c11.447-31.588,41.898-65.34,93.039-65.34h5.942
			c20.758,0,41.057,7.485,58.702,21.646c7.208,5.785,16.276,8.971,25.533,8.971s18.324-3.186,25.533-8.971
			c17.645-14.161,37.944-21.646,58.702-21.646h5.942c51.141,0,81.592,33.753,93.039,65.34
			C496.831,302.836,495.088,347.977,456.082,380.518z"/>
	</g>
</g>
<g>
	<g>
		<path d="M333.342,249.52c-3.526-4.393-9.944-5.096-14.337-1.571c-5.263,4.224-11.622,6.457-18.39,6.457
			c-6.768,0-13.126-2.232-18.39-6.457c-4.392-3.526-10.811-2.823-14.337,1.571c-3.526,4.392-2.823,10.811,1.571,14.337
			c8.795,7.058,19.86,10.946,31.156,10.946c11.296,0,22.361-3.887,31.156-10.946C336.164,260.332,336.868,253.913,333.342,249.52z"
			/>
	</g>
</g>
<g>
	<g>
		<path d="M412.074,384.932c-2.57-5.011-8.718-6.991-13.729-4.419c-29.909,15.341-62.244,23.12-96.106,23.12
			c-5.633,0-10.198,4.566-10.198,10.198c0,5.633,4.566,10.198,10.198,10.198c37.131,0,72.598-8.535,105.415-25.369
			C412.665,396.09,414.644,389.943,412.074,384.932z"/>
	</g>
</g>
<g>
	<g>
		<path d="M451.608,356.061c-3.608-4.327-10.038-4.909-14.363-1.3c-2.362,1.97-4.797,3.912-7.237,5.774
			c-4.479,3.417-5.34,9.816-1.924,14.294c2.007,2.632,5.044,4.014,8.116,4.014c2.157,0,4.33-0.681,6.177-2.09
			c2.675-2.04,5.344-4.169,7.932-6.329C454.634,366.816,455.216,360.385,451.608,356.061z"/>
	</g>
</g>
<g>
</g>
<g>
</g>
<g>
</g>
<g>
</g>
<g>
</g>
<g>
</g>
<g>
</g>
<g>
</g>
<g>
</g>
<g>
</g>
<g>
</g>
<g>
</g>
<g>
</g>
<g>
</g>
<g>
</g>
  </symbol


	<symbol id="choclateBar" viewBox="0 0 46 46">
    <path d="M44.6903 7.1641L38.8069 1.27893C37.9858 0.457505 36.8943 0 35.7301 0C34.5659 0 33.4641 0.457505 32.6429 1.27893C31.7802 2.14195 31.3436 3.29611 31.3644 4.46067C30.2002 4.43987 29.0464 4.87658 28.1837 5.7396C27.3209 6.60262 26.8843 7.75678 26.9051 8.92134C25.7409 8.89015 24.5871 9.33725 23.7244 10.2003C22.8616 11.0633 22.425 12.2175 22.4458 13.382C21.2816 13.3612 20.1278 13.7979 19.2651 14.6609L4.71265 29.2179L0.315736 33.6162C0.191001 33.7306 0.0974494 33.8865 0.0454764 34.0529C0.0454764 34.0737 0.0350818 34.0841 0.0350818 34.1049C-0.0272858 34.344 -0.00649662 34.5832 0.0974494 34.7911C0.118239 34.8431 0.149422 34.8847 0.170212 34.9367C0.305341 35.1343 0.502839 35.2902 0.752309 35.363L4.31766 36.382L5.33633 39.9485C5.42988 40.2916 5.70014 40.5619 6.05355 40.6659L9.6189 41.6849L10.6376 45.2514C10.7103 45.5009 10.8663 45.6985 11.0741 45.8336C11.1157 45.8648 11.1573 45.8856 11.2093 45.9064C11.3444 45.9688 11.4899 46 11.6355 46C11.729 46 11.8226 45.9896 11.9265 45.9584C12.1136 45.9064 12.2695 45.8128 12.3943 45.6777L16.7912 41.2794L23.1007 34.9679C23.2254 35.0927 23.371 35.1759 23.5373 35.2278C23.9011 35.3318 24.2961 35.2382 24.5663 34.9679L32.0816 27.4503C32.487 27.0448 32.487 26.3897 32.0816 25.9842L31.9881 25.8906C32.4247 25.1731 32.6325 24.3517 32.6222 23.5303C33.7863 23.5511 34.9401 23.1144 35.8029 22.2514C36.6656 21.3883 37.1022 20.2342 37.0814 19.0696C38.2456 19.1008 39.3994 18.6537 40.2622 17.7907C41.1249 16.9277 41.5615 15.7735 41.5407 14.609C42.7049 14.6297 43.8587 14.193 44.7215 13.33C45.5426 12.5086 46 11.4064 46 10.2419C45.9688 9.0877 45.5218 7.98553 44.6903 7.1641ZM12.1344 42.9638L11.4484 40.5411C11.3548 40.198 11.0845 39.9277 10.7311 39.8237L7.16578 38.8151L6.14711 35.2486C6.05356 34.9055 5.7833 34.6352 5.42988 34.5312L3.00794 33.8449L5.42988 31.4222L14.5459 40.5411L12.1344 42.9638ZM24.4208 32.1501L21.9781 20.8476C21.8533 20.2862 21.3024 19.9326 20.7411 20.047C20.1798 20.1718 19.8264 20.7229 19.9407 21.2844L22.4043 32.6908L16.022 39.075L6.90591 29.9561L19.9927 16.8653L29.8468 26.7224L24.4208 32.1501ZM43.2246 11.8639C42.5282 12.5606 41.468 12.7373 40.5948 12.2902C40.1998 12.0927 39.7113 12.1655 39.3994 12.4878C39.0876 12.8101 39.0044 13.2884 39.2019 13.6835C39.6385 14.5674 39.4618 15.6279 38.7758 16.3142C38.0897 17.0005 37.0191 17.1876 36.1459 16.7405C35.7509 16.5429 35.2624 16.6157 34.9505 16.9381C34.6387 17.25 34.5555 17.7387 34.753 18.1338C35.1896 19.0176 35.0129 20.0782 34.3269 20.7645C33.6304 21.4611 32.5702 21.6379 31.697 21.1908C31.302 20.9932 30.8135 21.066 30.5017 21.3883C30.1898 21.7003 30.1067 22.189 30.3042 22.5841C30.5744 23.1352 30.616 23.7486 30.4289 24.3101L21.6662 15.5448C22.2276 15.368 22.8408 15.3992 23.3917 15.6695C23.7867 15.8671 24.2753 15.7943 24.5871 15.472C24.899 15.1496 24.9821 14.6713 24.7846 14.2762C24.348 13.3924 24.5248 12.3318 25.2108 11.6456C25.8968 10.9593 26.9675 10.7722 27.8406 11.2193C28.2356 11.4168 28.7242 11.344 29.036 11.0217C29.3479 10.7098 29.431 10.2211 29.2335 9.82595C28.7969 8.94213 28.9736 7.88155 29.6597 7.1953C30.3561 6.49864 31.4164 6.32188 32.2895 6.76899C32.6845 6.96655 33.1731 6.89376 33.4849 6.57143C33.7967 6.25949 33.8799 5.7708 33.6824 5.37568C33.2458 4.49186 33.4225 3.43128 34.1086 2.74503C34.5452 2.30832 35.1169 2.07957 35.7301 2.07957C36.3434 2.07957 36.9151 2.31872 37.3517 2.74503L43.2246 8.6302C43.6612 9.06691 43.8899 9.63879 43.8899 10.2523C43.8899 10.8553 43.6508 11.4376 43.2246 11.8639Z"></path>
	</symbol>


	<symbol id="arrow" viewBox="0 0 14.2 25.5" >
		<polygon class="st0" points="14.2,12.7 1.5,0 0,1.5 11.3,12.7 0,24 1.5,25.5 14.2,12.7 14.2,12.7 "/>
	</symbol>
</svg>
